<svg enable-background="new 0 0 165.9 40" viewBox="0 0 165.9 40" xmlns="http://www.w3.org/2000/svg"><g fill="#506af8"><path d="m32 40h-24c-4.4 0-8-3.6-8-8v-24c0-4.4 3.6-8 8-8h24c4.4 0 8 3.6 8 8v24c0 4.4-3.6 8-8 8zm-24-38.4c-3.5 0-6.4 2.9-6.4 6.4v24c0 3.5 2.9 6.4 6.4 6.4h24c3.5 0 6.4-2.9 6.4-6.4v-24c0-3.5-2.9-6.4-6.4-6.4z"/><path d="m20 32c-6.6 0-12-5.4-12-12s5.4-12 12-12 12 5.4 12 12-5.4 12-12 12zm0-23.2c-6.2 0-11.2 5-11.2 11.2s5 11.2 11.2 11.2 11.2-5 11.2-11.2-5-11.2-11.2-11.2z"/><circle cx="20" cy="20" r="6.4"/><path d="m74.8 23.7c0 1.8-.3 3.4-.9 4.6s-1.4 2.3-2.5 3.1c-1 .8-2.3 1.4-3.6 1.8-1.4.4-2.8.6-4.4.6-1.5 0-2.9-.2-4.2-.7s-2.3-1.1-3.2-2v2.3h-4.7v-26.4h4.7v9.3c.9-.9 1.9-1.6 3.2-2.1s2.7-.8 4.2-.8 3 .2 4.4.6 2.6 1 3.6 1.9c1 .8 1.9 1.9 2.5 3.2s.9 2.9.9 4.6zm-4.9.1c0-2.1-.6-3.7-1.9-4.8-1.3-1-2.9-1.6-5-1.6-1 0-2 .1-2.8.4-.9.3-1.6.7-2.2 1.2s-1.1 1.2-1.4 2-.5 1.7-.5 2.7.2 1.9.5 2.6c.4.8.9 1.4 1.5 1.9s1.3.9 2.2 1.2c.8.3 1.8.4 2.8.4s1.9-.1 2.7-.4c.8-.2 1.6-.6 2.2-1.1s1.1-1.1 1.5-1.9c.2-.6.4-1.5.4-2.6z"/><path d="m81.1 25.2c.1.9.4 1.6.8 2.2s1 1.1 1.6 1.5 1.4.7 2.1.8c.8.2 1.6.3 2.4.3.7 0 1.3 0 2-.1s1.4-.2 2-.4 1.2-.5 1.7-.9.9-1 1.2-1.7l4.5 1.1c-.5 1.2-1.1 2.2-1.9 3s-1.7 1.4-2.7 1.8-2.1.7-3.3.9-2.4.2-3.6.2c-1.7 0-3.3-.2-4.8-.6-1.4-.4-2.7-1-3.7-1.9-1.1-.8-1.9-1.9-2.5-3.1-.6-1.3-.9-2.7-.9-4.5 0-1.7.3-3.2 1-4.5.6-1.3 1.5-2.4 2.6-3.3s2.3-1.5 3.8-2c1.4-.4 2.9-.7 4.5-.7s3.1.2 4.5.7c1.4.4 2.7 1.1 3.7 1.9 1.1.9 1.9 1.9 2.5 3.2s.9 2.8.9 4.5v1.3h-18.4zm13.4-3.5c-.2-.8-.5-1.4-.9-1.9s-1-1-1.6-1.3-1.3-.6-2-.7c-.7-.2-1.4-.2-2.1-.2s-1.4.1-2.1.2c-.7.2-1.4.4-2 .7s-1.1.8-1.6 1.3-.8 1.2-1 1.9z"/><path d="m100.7 23.7c0-1.8.3-3.3.9-4.6s1.4-2.4 2.5-3.2c1-.8 2.3-1.5 3.6-1.9 1.4-.4 2.8-.6 4.4-.6 1.5 0 2.9.3 4.2.8s2.3 1.2 3.2 2.1v-2.5h4.7v19.7h-4.7v-2.3c-.9.8-1.9 1.5-3.2 2s-2.7.7-4.2.7-3-.2-4.4-.6-2.6-1-3.6-1.8-1.9-1.9-2.5-3.1c-.6-1.3-.9-2.8-.9-4.7zm4.9.1c0 1.1.2 2 .5 2.7.4.8.8 1.4 1.5 1.9.6.5 1.3.9 2.2 1.1.8.2 1.7.4 2.7.4s1.9-.1 2.7-.4c.9-.3 1.6-.7 2.2-1.2s1.1-1.1 1.5-1.9.5-1.6.5-2.6-.2-1.9-.5-2.7c-.4-.8-.8-1.5-1.5-2-.6-.5-1.4-1-2.2-1.2-.8-.3-1.8-.4-2.8-.4-2 0-3.7.5-5 1.6-1.2 1-1.8 2.6-1.8 4.7z"/><path d="m154.1 33.5v-11c0-.7-.1-1.4-.2-2s-.3-1.2-.7-1.6c-.3-.4-.8-.8-1.3-1.1-.6-.3-1.3-.4-2.1-.4s-1.6.2-2.2.5-1.2.7-1.6 1.3c-.4.5-.8 1.1-1 1.8s-.3 1.4-.3 2.2v10.3h-4.7v-11c0-.7-.1-1.4-.2-2s-.3-1.2-.7-1.6c-.3-.4-.8-.8-1.3-1.1-.6-.3-1.3-.4-2.1-.4-.9 0-1.7.2-2.3.5s-1.2.8-1.6 1.3-.7 1.2-.9 1.9-.3 1.4-.3 2.2v10.2h-4.7v-19.7h4.7v2.1c.7-.9 1.6-1.5 2.7-1.9s2.1-.6 3.1-.6c1.5 0 2.9.2 3.9.7 1.1.5 2 1.2 2.8 2.3.9-1.1 2-1.9 3.3-2.4s2.6-.7 4-.7c1.5 0 2.8.2 3.9.6s2 1 2.7 1.7c.7.8 1.2 1.7 1.5 2.8s.5 2.4.5 3.9v11.1z"/></g></svg>